<svg width="36" height="36" viewBox="0 0 36 36" fill="none" xmlns="http://www.w3.org/2000/svg">
<path d="M5.5 17.5C2.743 17.5 0.5 15.282 0.5 12.555C0.5 10.309 3.782 4.04301 5.497 1.01001C7.213 4.07501 10.5 10.397 10.5 12.555C10.5 15.282 8.257 17.5 5.5 17.5Z" fill="#C2E8FF"/>
<path d="M5.495 2.034C7.509 5.706 10 10.819 10 12.555C10 15.006 7.981 17 5.5 17C3.019 17 1 15.006 1 12.555C1 10.747 3.484 5.667 5.495 2.034ZM5.5 0C5.5 0 0 9.426 0 12.555C0 15.562 2.462 18 5.5 18C8.538 18 11 15.562 11 12.555C11 9.547 5.5 0 5.5 0Z" fill="#8BB7F0"/>
<path d="M17.5 35.5C14.743 35.5 12.5 33.282 12.5 30.555C12.5 28.309 15.782 22.043 17.497 19.01C19.213 22.076 22.5 28.398 22.5 30.555C22.5 33.282 20.257 35.5 17.5 35.5Z" fill="#C2E8FF"/>
<path d="M17.495 20.034C19.509 23.706 22 28.819 22 30.555C22 33.006 19.981 35 17.5 35C15.019 35 13 33.006 13 30.555C13 28.747 15.484 23.667 17.495 20.034ZM17.5 18C17.5 18 12 27.426 12 30.555C12 33.562 14.462 36 17.5 36C20.538 36 23 33.562 23 30.555C23 27.547 17.5 18 17.5 18Z" fill="#8BB7F0"/>
<path d="M30.5 20.5C27.743 20.5 25.5 18.282 25.5 15.555C25.5 13.309 28.782 7.04301 30.497 4.01001C32.213 7.07601 35.5 13.398 35.5 15.555C35.5 18.282 33.257 20.5 30.5 20.5Z" fill="#C2E8FF"/>
<path d="M30.495 5.034C32.509 8.706 35 13.819 35 15.555C35 18.006 32.981 20 30.5 20C28.019 20 26 18.006 26 15.555C26 13.747 28.484 8.667 30.495 5.034ZM30.5 3C30.5 3 25 12.426 25 15.555C25 18.562 27.462 21 30.5 21C33.538 21 36 18.562 36 15.555C36 12.547 30.5 3 30.5 3Z" fill="#8BB7F0"/>
</svg>
