<svg width="74" height="62" viewBox="0 0 74 62" fill="none" xmlns="http://www.w3.org/2000/svg">
<path d="M8 30.5C6.621 30.5 5.5 29.379 5.5 28C5.5 26.621 6.621 25.5 8 25.5H58.463C63.977 25.5 68.463 21.014 68.463 15.5C68.463 9.98598 63.977 5.49998 58.463 5.49998C54.681 5.49998 51.264 7.59598 49.545 10.97C49.116 11.812 48.262 12.335 47.315 12.335C46.919 12.335 46.539 12.243 46.183 12.062C44.954 11.436 44.465 9.92698 45.09 8.69898C47.666 3.64198 52.79 0.500977 58.463 0.500977C66.734 0.500977 73.463 7.22998 73.463 15.501C73.463 23.704 66.79 30.433 58.589 30.5L58.593 30.501H8V30.5Z" fill="#B5DDF5"/>
<path d="M58.463 1C66.458 1 72.963 7.505 72.963 15.5C72.963 23.43 66.513 29.934 58.593 30H8C6.897 30 6 29.103 6 28C6 26.897 6.897 26 8 26H58.463C64.253 26 68.963 21.29 68.963 15.5C68.963 9.71 64.253 5 58.463 5C54.492 5 50.904 7.2 49.099 10.743C48.756 11.417 48.073 11.835 47.315 11.835C46.999 11.835 46.694 11.761 46.409 11.616C45.427 11.115 45.035 9.909 45.535 8.926C48.026 4.037 52.979 1 58.463 1ZM58.463 0C52.602 0 47.307 3.246 44.645 8.472C43.893 9.949 44.48 11.755 45.956 12.507C46.392 12.729 46.857 12.835 47.316 12.835C48.408 12.835 49.462 12.237 49.991 11.197C51.623 7.991 54.87 6 58.463 6C63.701 6 67.963 10.262 67.963 15.5C67.963 20.738 63.701 25 58.463 25H8C6.343 25 5 26.343 5 28C5 29.657 6.343 31 8 31H58.593V30.999C67.08 30.93 73.963 24.004 73.963 15.5C73.963 6.953 67.01 0 58.463 0Z" fill="#7496C4"/>
<path d="M39.5 61.5C34.584 61.5 30.144 58.776 27.91 54.394C27.285 53.165 27.775 51.658 29.003 51.032C29.359 50.85 29.739 50.759 30.136 50.759C31.081 50.759 31.936 51.282 32.365 52.125C33.74 54.823 36.474 56.5 39.5 56.5C43.911 56.5 47.5 52.911 47.5 48.5C47.5 44.089 43.911 40.5 39.5 40.5H13C11.621 40.5 10.5 39.379 10.5 38C10.5 36.621 11.621 35.5 13 35.5H39.609C46.715 35.558 52.5 41.389 52.5 48.5C52.5 55.668 46.668 61.5 39.5 61.5Z" fill="#B5DDF5"/>
<path d="M39.605 36C46.44 36.057 52 41.664 52 48.5C52 55.393 46.393 61 39.5 61C34.773 61 30.503 58.381 28.356 54.166C27.856 53.183 28.248 51.977 29.232 51.476C29.516 51.331 29.82 51.257 30.136 51.257C30.893 51.257 31.577 51.676 31.92 52.351C33.38 55.219 36.285 57 39.5 57C44.187 57 48 53.187 48 48.5C48 43.813 44.187 40 39.5 40H13C11.897 40 11 39.103 11 38C11 36.897 11.897 36 13 36H39.605ZM39.609 35H13C11.343 35 10 36.343 10 38C10 39.657 11.343 41 13 41H39.5C43.636 41 47 44.364 47 48.5C47 52.636 43.636 56 39.5 56C36.663 56 34.1 54.428 32.811 51.897C32.281 50.856 31.228 50.257 30.136 50.257C29.678 50.257 29.213 50.363 28.777 50.585C27.3 51.337 26.714 53.143 27.465 54.619C29.783 59.172 34.395 62 39.5 62C46.944 62 53 55.944 53 48.5C53 41.093 47.003 35.06 39.609 35Z" fill="#7496C4"/>
<path d="M3 20.5C1.621 20.5 0.5 19.379 0.5 18C0.5 16.621 1.621 15.5 3 15.5H21.5C24.257 15.5 26.5 13.257 26.5 10.5C26.5 7.743 24.257 5.5 21.5 5.5C19.608 5.5 17.899 6.548 17.04 8.235C16.611 9.077 15.757 9.6 14.811 9.601C14.415 9.601 14.035 9.508 13.678 9.328C12.45 8.703 11.959 7.195 12.584 5.966C14.301 2.595 17.718 0.5 21.5 0.5C27.014 0.5 31.5 4.986 31.5 10.5C31.5 15.973 27.048 20.459 21.575 20.5H3Z" fill="#B5DDF5"/>
<path d="M21.5 1C26.738 1 31 5.262 31 10.5C31 15.7 26.77 19.961 21.578 20H3C1.897 20 1 19.103 1 18C1 16.897 1.897 16 3 16H21.5C24.533 16 27 13.533 27 10.5C27 7.467 24.533 5 21.5 5C19.419 5 17.539 6.153 16.594 8.008C16.251 8.682 15.568 9.101 14.811 9.101C14.495 9.101 14.19 9.027 13.905 8.882C12.923 8.382 12.53 7.176 13.03 6.193C14.661 2.99 17.907 1 21.5 1ZM21.5 0C17.528 0 13.941 2.199 12.139 5.739C11.388 7.216 11.975 9.022 13.452 9.773C13.888 9.995 14.353 10.101 14.811 10.101C15.903 10.101 16.956 9.503 17.486 8.462C18.259 6.943 19.797 6 21.5 6C23.981 6 26 8.019 26 10.5C26 12.981 23.981 15 21.5 15H3C1.343 15 0 16.343 0 18C0 19.657 1.343 21 3 21H21.578C27.332 20.957 32 16.264 32 10.5C32 4.71 27.29 0 21.5 0Z" fill="#7496C4"/>
</svg>
