<svg width="40" height="27" viewBox="0 0 40 27" fill="none" xmlns="http://www.w3.org/2000/svg">
<path d="M8 26.5C3.864 26.5 0.5 23.136 0.5 19C0.5 15.565 2.828 12.579 6.161 11.737L6.567 11.634L6.537 11.216C6.516 10.934 6.5 10.719 6.5 10.5C6.5 4.986 10.986 0.5 16.5 0.5C21.183 0.5 25.187 3.688 26.236 8.251L26.347 8.732L26.829 8.628C27.22 8.543 27.614 8.5 28 8.5C30.723 8.5 33.005 10.454 33.426 13.145L33.484 13.515L33.855 13.564C37.073 13.987 39.5 16.754 39.5 20C39.5 23.584 36.584 26.5 33 26.5H8Z" fill="#DFF0FE"/>
<path d="M16.5 1C20.948 1 24.752 4.028 25.749 8.363L25.97 9.325L26.935 9.116C27.292 9.039 27.65 9 28 9C30.475 9 32.549 10.776 32.932 13.222L33.048 13.961L33.79 14.059C36.76 14.45 39 17.004 39 20C39 23.308 36.308 26 33 26H8C4.14 26 1 22.86 1 19C1 15.795 3.172 13.008 6.283 12.222L7.095 12.017L7.036 11.182L7.03 11.1C7.015 10.901 7 10.702 7 10.5C7 5.262 11.262 1 16.5 1ZM16.5 0C10.701 0 6 4.701 6 10.5C6 10.754 6.02 11.003 6.038 11.252C2.57 12.128 0 15.26 0 19C0 23.418 3.582 27 8 27H33C36.866 27 40 23.866 40 20C40 16.447 37.35 13.519 33.92 13.067C33.471 10.198 30.996 8 28 8C27.562 8 27.135 8.05 26.724 8.139C25.651 3.479 21.486 0 16.5 0Z" fill="#4788C7"/>
</svg>
