<svg width="80" height="80" viewBox="0 0 80 80" fill="none" xmlns="http://www.w3.org/2000/svg">
<path d="M33.972 70.298L25.332 75.416L22.738 65.292L12.704 67.296L14.794 56.842L4.33602 54.774L10.028 46.272L1.66602 40L9.70201 33.972L4.58402 25.332L14.708 22.738L12.704 12.704L23.158 14.794L25.226 4.336L33.728 10.028L40 1.666L46.028 9.702L54.668 4.584L57.262 14.708L67.296 12.704L65.206 23.158L75.664 25.226L69.972 33.728L78.334 40L70.298 46.028L75.416 54.668L65.292 57.262L67.296 67.296L56.842 65.206L54.774 75.664L46.272 69.972L40 78.334L33.972 70.298Z" fill="#FFEEA3"/>
<path d="M40 3.334L44.688 9.586L45.764 11.02L47.308 10.106L54.032 6.124L56.06 14.04L56.53 15.876L58.39 15.504L66.022 13.978L64.422 21.98L64.028 23.946L65.994 24.334L74 25.918L69.668 32.386L68.614 33.962L70.13 35.1L76.666 40L70.414 44.688L68.98 45.764L69.894 47.308L73.876 54.032L65.96 56.06L64.124 56.53L64.496 58.39L66.022 66.022L58.02 64.422L56.054 64.028L55.666 65.994L54.082 74L47.614 69.668L46.038 68.614L44.9 70.13L40 76.666L35.312 70.414L34.236 68.98L32.692 69.894L25.968 73.876L23.94 65.96L23.47 64.124L21.61 64.496L13.978 66.022L15.578 58.02L15.972 56.054L14.006 55.666L6 54.082L10.332 47.614L11.386 46.038L9.87 44.9L3.334 40L9.586 35.312L11.02 34.236L10.106 32.692L6.124 25.968L14.04 23.94L15.876 23.47L15.504 21.61L13.978 13.978L21.98 15.578L23.946 15.972L24.334 14.006L25.918 6L32.386 10.332L33.962 11.386L35.1 9.87L40 3.334ZM40 0L33.498 8.67L24.538 2.67L22.372 13.618L11.428 11.428L13.542 22.002L3.044 24.692L8.384 33.71L0 40L8.67 46.502L2.67 55.462L13.618 57.628L11.43 68.57L22.004 66.456L24.694 76.954L33.712 71.614L40 80L46.502 71.33L55.462 77.33L57.628 66.382L68.57 68.57L66.456 57.996L76.954 55.306L71.614 46.288L80 40L71.33 33.498L77.33 24.538L66.382 22.372L68.57 11.43L57.996 13.544L55.306 3.046L46.288 8.386L40 0Z" fill="#BA9B48"/>
<path d="M40 18C34.1652 18 28.5695 20.3179 24.4437 24.4437C20.3179 28.5695 18 34.1652 18 40C18 45.8348 20.3179 51.4306 24.4437 55.5564C28.5695 59.6822 34.1652 62 40 62C45.8348 62 51.4306 59.6822 55.5564 55.5564C59.6822 51.4306 62 45.8348 62 40C62 34.1652 59.6822 28.5695 55.5564 24.4437C51.4306 20.3179 45.8348 18 40 18Z" fill="#F5CE85"/>
</svg>
