<svg width="32" height="76" viewBox="0 0 32 76" fill="none" xmlns="http://www.w3.org/2000/svg">
<path d="M16 42.929C10.762 42.929 6.5 38.667 6.5 33.429V10C6.5 4.762 10.762 0.5 16 0.5C21.238 0.5 25.5 4.762 25.5 10V33.429C25.5 38.667 21.238 42.929 16 42.929Z" fill="#E1EBF2"/>
<path d="M16 1C20.963 1 25 5.037 25 10V33.429C25 38.392 20.963 42.429 16 42.429C11.037 42.429 7 38.392 7 33.429V10C7 5.037 11.037 1 16 1ZM16 0C10.5 0 6 4.5 6 10V33.429C6 38.929 10.5 43.429 16 43.429C21.5 43.429 26 38.929 26 33.429V10C26 4.5 21.5 0 16 0Z" fill="#788B9C"/>
<path d="M16 75.5C7.453 75.5 0.5 68.547 0.5 60C0.5 55.281 2.619 50.875 6.313 47.911L6.5 47.761V29.5H25.5V47.761L25.687 47.911C29.381 50.875 31.5 55.281 31.5 60C31.5 68.547 24.547 75.5 16 75.5Z" fill="#F78F8F"/>
<path d="M25 30V47.521V48.001L25.374 48.301C28.949 51.17 31 55.434 31 60C31 68.271 24.271 75 16 75C7.729 75 1 68.271 1 60C1 55.434 3.051 51.17 6.626 48.301L7 48.001V47.521V30H25ZM26 29H6V47.521C2.345 50.453 0 54.95 0 60C0 68.837 7.163 76 16 76C24.837 76 32 68.837 32 60C32 54.95 29.655 50.453 26 47.521V29Z" fill="#C74343"/>
<path d="M14 38H26V39H14V38ZM14 47H26V48H14V47Z" fill="#C74343"/>
<path d="M14 20H26V21H14V20ZM14 11H26V12H14V11Z" fill="#788B9C"/>
</svg>
